<svg xmlns="http://www.w3.org/2000/svg" xml:space="preserve" viewBox="0 0 2474 1454.618"><linearGradient id="a" x1="1235.18" x2="1235.18" y1="1333.85" y2="89.929" gradientUnits="userSpaceOnUse"><stop offset="0" style="stop-color:#c7c7c7"/><stop offset=".038" style="stop-color:#ccc"/><stop offset=".231" style="stop-color:#e3e3e3"/><stop offset=".441" style="stop-color:#f3f3f3"/><stop offset=".677" style="stop-color:#fcfcfc"/><stop offset="1" style="stop-color:#fff"/></linearGradient><path fill="url(#a)" d="M2311.933 1273.67c8.39 32.92-8.1 60.18-36.75 60.18l-2075.86-.06c-29.19 0-48.03-27.53-41.94-60.76l210.59-1148.39c3.54-19.29 24.3-34.83 46.18-34.71l1559.15 8.63c21.57.12 43.18 15.78 48.07 34.97l290.56 1140.14zm-156.93-147.27c0-12.92-10.58-23.5-23.5-23.5h-898c-6.47 0-12.34 2.64-16.6 6.9s-6.9 10.14-6.9 16.6c0 12.93 10.57 23.5 23.5 23.5h898c6.46 0 12.33-2.64 16.59-6.9s6.91-10.14 6.91-16.6zm-36-99.78c0-12.93-10.58-23.5-23.5-23.5h-862c-6.47 0-12.34 2.64-16.6 6.9s-6.9 10.14-6.9 16.6c0 12.92 10.57 23.5 23.5 23.5h862c6.46 0 12.33-2.64 16.59-6.9s6.91-10.14 6.91-16.6zm-12 197.34c0-12.92-10.58-23.5-23.5-23.5h-850c-6.47 0-12.34 2.64-16.6 6.9s-6.9 10.14-6.9 16.6c0 12.93 10.57 23.5 23.5 23.5h850c6.46 0 12.33-2.64 16.59-6.9s6.91-10.14 6.91-16.6zm-20-296.67c0-12.93-10.58-23.5-23.5-23.5h-830c-6.47 0-12.34 2.64-16.6 6.9-4.26 4.26-6.9 10.13-6.9 16.6 0 12.92 10.57 23.5 23.5 23.5h830c6.46 0 12.33-2.65 16.59-6.91s6.91-10.13 6.91-16.59zm-28-103.56c0-12.92-10.58-23.5-23.5-23.5h-803c-6.47 0-12.34 2.65-16.6 6.91s-6.9 10.13-6.9 16.59c0 12.93 10.57 23.5 23.5 23.5h803c6.46 0 12.33-2.64 16.59-6.9s6.91-10.13 6.91-16.6zm-27-98.56c0-12.92-10.58-23.5-23.5-23.5h-775c-6.47 0-12.34 2.65-16.6 6.91s-6.9 10.13-6.9 16.59c0 12.93 10.57 23.5 23.5 23.5h775c6.46 0 12.33-2.64 16.59-6.9s6.91-10.13 6.91-16.6zm-30-97.55c0-12.93-10.58-23.5-23.5-23.5h-745c-6.47 0-12.34 2.64-16.6 6.9s-6.9 10.14-6.9 16.6c0 12.92 10.57 23.5 23.5 23.5h745c6.46 0 12.33-2.64 16.59-6.9s6.91-10.14 6.91-16.6zm-71.94-153.9-43.5-227.99h-413.98l39 227.99h418.48zm-808.06 780.4v-651h-667l-136 651h803z"/><path fill="#828282" d="M2383.463 1340.39c8.99 33.81-7.31 61.83-36.34 61.84l-2216.02.61c-29.62.01-48.34-28.29-41.7-62.45L333.473 85.78c3.68-18.9 24.38-34.13 46.04-34l1625.17 9.26c21.35.13 42.86 15.47 47.86 34.28l330.92 1245.07zm-108.28-6.54c28.65 0 45.14-27.26 36.75-60.18l-290.56-1140.14c-4.89-19.19-26.5-34.85-48.07-34.97l-1559.15-8.63c-21.88-.12-42.64 15.42-46.18 34.71l-210.59 1148.39c-6.09 33.23 12.75 60.76 41.94 60.76l2075.86.06z"/><path fill="#CCC" d="M2131.503 1102.9c12.92 0 23.5 10.58 23.5 23.5 0 6.46-2.65 12.34-6.91 16.6s-10.13 6.9-16.59 6.9h-898c-12.93 0-23.5-10.57-23.5-23.5 0-6.46 2.64-12.34 6.9-16.6s10.13-6.9 16.6-6.9h898zm-36-99.78c12.92 0 23.5 10.57 23.5 23.5 0 6.46-2.65 12.34-6.91 16.6s-10.13 6.9-16.59 6.9h-862c-12.93 0-23.5-10.58-23.5-23.5 0-6.46 2.64-12.34 6.9-16.6s10.13-6.9 16.6-6.9h862zm-12 197.34c12.92 0 23.5 10.58 23.5 23.5 0 6.46-2.65 12.34-6.91 16.6s-10.13 6.9-16.59 6.9h-850c-12.93 0-23.5-10.57-23.5-23.5 0-6.46 2.64-12.34 6.9-16.6s10.13-6.9 16.6-6.9h850zm-20-296.67c12.92 0 23.5 10.57 23.5 23.5 0 6.46-2.65 12.33-6.91 16.59s-10.13 6.91-16.59 6.91h-830c-12.93 0-23.5-10.58-23.5-23.5 0-6.47 2.64-12.34 6.9-16.6 4.26-4.26 10.13-6.9 16.6-6.9h830zm-28-103.56c12.92 0 23.5 10.58 23.5 23.5 0 6.47-2.65 12.34-6.91 16.6-4.26 4.26-10.13 6.9-16.59 6.9h-803c-12.93 0-23.5-10.57-23.5-23.5 0-6.46 2.64-12.33 6.9-16.59s10.13-6.91 16.6-6.91h803zm-27-98.56c12.92 0 23.5 10.58 23.5 23.5 0 6.47-2.65 12.34-6.91 16.6s-10.13 6.9-16.59 6.9h-775c-12.93 0-23.5-10.57-23.5-23.5 0-6.46 2.64-12.33 6.9-16.59s10.13-6.91 16.6-6.91h775zm-30-97.55c12.92 0 23.5 10.57 23.5 23.5 0 6.46-2.65 12.34-6.91 16.6s-10.13 6.9-16.59 6.9h-745c-12.93 0-23.5-10.58-23.5-23.5 0-6.46 2.64-12.34 6.9-16.6s10.13-6.9 16.6-6.9h745zm-91.94-358.39 43.5 227.99h-418.48l-39-227.99zm-764.56 357.39v651h-803l136-651h667zm-15 546.78c0-21.49-12.19-40.27-30-49.76V651.12h-582l-81.42 442.84c-12.81 1.55-24.32 7.44-33.03 16.14-10.21 10.22-16.55 24.3-16.55 39.8 0 21.54 12.25 40.37 30.13 49.84l-.13.72h1.54c7.5 3.71 15.93 5.8 24.82 5.8h630.28c8.89 0 17.32-2.09 24.82-5.8h1.54v-.79a56.87 56.87 0 0 0 13.45-9.97c10.21-10.21 16.55-24.3 16.55-39.8z"/><path fill="#F2F2F2" d="M1077.003 1100.14c17.81 9.49 30 28.27 30 49.76 0 15.5-6.34 29.59-16.55 39.8a56.87 56.87 0 0 1-13.45 9.97v-99.53z"/><path fill="#E6E6E6" d="M1077.003 1199.67v.79h-1.54c.52-.25 1.03-.52 1.54-.79z"/><path fill="#F2F2F2" d="M1077.003 1100.14v99.53c-.51.27-1.02.54-1.54.79h-679.92c-.48-.23-.95-.47-1.41-.72l19.45-105.78c2.22-.27 4.49-.41 6.78-.41h630.28c9.51 0 18.48 2.39 26.36 6.59zm-16.89 50.19c0-14.55-11.91-26.46-26.47-26.46h-598.03c-7.28 0-13.9 2.98-18.7 7.77-4.79 4.8-7.77 11.42-7.77 18.69 0 14.56 11.91 26.47 26.47 26.47h598.03c7.28 0 13.9-2.98 18.69-7.78 4.8-4.79 7.78-11.41 7.78-18.69z"/><path fill="#E6E6E6" d="M1077.003 651.12v449.02a55.88 55.88 0 0 0-26.36-6.59h-630.28c-2.29 0-4.56.14-6.78.41l81.42-442.84h582z"/><path fill="#F2F2F2" d="M395.543 1200.46h679.92c-7.5 3.71-15.93 5.8-24.82 5.8h-630.28c-8.89 0-17.32-2.09-24.82-5.8z"/><path fill="#FFF" d="M1033.643 1123.87c14.56 0 26.47 11.91 26.47 26.46 0 7.28-2.98 13.9-7.78 18.69-4.79 4.8-11.41 7.78-18.69 7.78h-598.03c-14.56 0-26.47-11.91-26.47-26.47 0-7.27 2.98-13.89 7.77-18.69 4.8-4.79 11.42-7.77 18.7-7.77h598.03z"/><path fill="#F2F2F2" d="m413.583 1093.96-19.45 105.78c-17.88-9.47-30.13-28.3-30.13-49.84 0-15.5 6.34-29.58 16.55-39.8 8.71-8.7 20.22-14.59 33.03-16.14z"/><path fill="#E6E6E6" d="M395.543 1200.46h-1.54l.13-.72c.46.25.93.49 1.41.72z"/><path fill="#666" d="M836.72 285.578c-.381 3.126-1.226 6.281-1.029 9.37.26 4.055-2.072 3.654-4.66 3.651-3.484-.003-2.099-2.407-2.345-4.193-.954-6.911-.942-14.04-4.936-20.259-4.102-6.384-9.835-9.97-17.35-10.606-22.116-1.87-44.28-.487-66.42-.857-8.709-.145-8.541-.005-9.49 8.57-2.71 24.483-5.482 48.962-8.472 73.413-.435 3.556.536 4.243 3.756 4.212 16.655-.16 33.318.122 49.965-.286 18.567-.455 28.001-9.008 30.745-27.552.475-3.211 1.625-3.575 4.304-3.52 3.601.074 1.876 2.429 1.724 3.8-1.876 16.932-4.101 33.83-5.65 50.792-.407 4.462-1.82 8.884-.585 13.675 1.128 4.378-3.29 7.773-7.762 6.79-1.36-1.564-2.114-3.208-1.083-5.309.975-1.988.814-4.081.219-6.158-.421-13.65-9.597-18.682-20.563-19.614-10.084-.958-20.192-.356-30.286-.36-8.75-.002-17.523-.662-26.257.44-1.644 8.823-3.057 17.673-3.108 26.681-.922 2.704 2.501 5.905-.954 8.318-.215.168-.238.36-.068.574-1.06 2.386 2.153 5.268-.862 7.428-1.862 3.07-.73 6.482-1.103 9.722-.924 2.689 2.477 5.876-.953 8.276-.214.188-.239.397-.075.63 2.09 7.172.534 14.34.061 21.527-.328 4.993 2.428 8.163 7.377 9.093.655.123-.164.063.494.059 21.628-.144 43.29 1.546 64.87-1.027 7.528-.897 13.906-4.55 19.459-9.538 6.325-5.68 12.032-11.991 17.552-18.444 1.226-1.432 2.675-2.297 4.118-3.305 4.107-7.273 4.107-7.273 10.921-6.709l-1.827 5.484c-6.889 14.755-13.902 29.455-20.571 44.31-1.477 3.29-3.272 4.254-6.724 4.248-52.815-.1-105.63-.053-158.446-.15-1.64-.003-4.655 1.676-4.7-2.3-.045-3.806 2.465-3.609 5.079-3.574 2.328.03 4.67-.019 6.987-.242 12.768-1.23 19.671-7.125 21.368-19.744 3.305-24.58 6.125-49.227 8.996-73.863a12956.72 12956.72 0 0 0 9.526-84.374c.49-4.453.627-8.985.456-13.462-.293-7.67-3.503-11.914-11.035-13.296-11.362-2.084-22.922-2.262-34.256.086-7.862 1.628-13.167 6.761-15.576 14.653-4.1 13.433-5.605 27.37-7.957 41.132-8.831 51.672-17.481 103.374-26.244 155.058-.252 1.488-.042 3.492-2.493 3.683-2.487.194-4.249-.32-5.776-2.73-8.376-13.219-16.982-26.293-25.503-39.42-27.74-42.736-55.475-85.475-83.22-128.207-.889-1.37-1.865-2.682-3.473-4.984-1.874 10.854-3.603 20.705-5.27 30.566a118480.2 118480.2 0 0 0-17.512 103.875c-.856 5.09-1.617 10.19-1.599 15.381.034 9.636 4.15 14.425 13.764 15.534 3.298.38 6.654.23 9.98.402 1.352.07 3.409-.504 3.016 2.003-.26 1.658-.04 3.928-2.814 3.881-.832-.014-1.666.02-2.498.02-22.16.002-44.319.041-66.477-.087-1.459-.009-4.363 1.657-4.332-2.076.024-2.952 1.372-4.067 4.363-3.824 2.64.214 5.33.027 7.985-.174 10.967-.831 18-6.22 21.077-16.736 4.546-15.54 5.98-31.699 8.956-47.553.796-4.24 1.29-8.537 1.922-12.807 2.362-13.665 4.797-27.318 7.063-41 1.829-11.04 3.384-22.126 5.192-33.17 1.43-8.738 3.065-17.442 4.599-26.163.612-3.484.24-6.476-1.877-9.753-6.092-9.429-14.413-15.2-25.23-17.776-2.053-.489-3.97.067-5.925-.162-1.96-.23-4.62 1.277-4.611-3.047.007-3.84 1.692-3.802 4.428-3.792 16.832.064 33.665.168 50.493-.071 3.86-.055 5.945 1.251 7.978 4.411 32.98 51.258 66.084 102.437 99.168 153.628.973 1.506 2.035 2.953 3.654 5.292 2.132-12.338 4.134-23.714 6.06-35.104 5.214-30.855 10.437-61.71 15.55-92.582.759-4.586 1.273-9.265 1.318-13.906.084-8.81-3.71-13.116-12.276-14.906-3.792-.792-7.61-.75-11.442-.81-1.34-.022-3.305.563-3.02-2 .198-1.793.06-3.867 2.767-3.892 1.167-.01 2.333-.027 3.5-.027 77.324-.001 154.65.053 231.974-.125 5.053-.011 6.197 1.492 5.775 6.171-.862 9.574-1.27 19.189-1.864 28.787zm102.988 125.669a.584.584 0 0 0-.235-.667c-3.135-3.05-5.653-6.353-4.576-11.134-1.696-1.185-.827-3.58-2.299-4.87-3.242-2.62-4.272-6.112-3.986-10.122-7.24-17.505-14.455-35.02-21.725-52.514-6.428-15.467-12.916-30.908-19.378-46.361-2.667-6.45-4.91-13.077-9.002-18.879-4.502-6.383-10.85-8.957-18.285-9.127-2.718-.063-4.306-.18-4.479-3.521-.175-3.401 1.66-3.327 4.005-3.324 24.33.028 48.661.027 72.992.001 2.166-.002 3.793.038 3.917 3.03.133 3.23-1.754 2.873-3.795 2.973-1.986.097-3.992.308-5.931.734-8.292 1.824-12.212 7.657-10.152 15.865 1.371 5.465 3.285 10.834 5.4 16.066 16.897 41.802 33.9 83.562 50.875 125.332.247.608.57 1.185.894 1.853 2.16-.652 1.745-2.703 2.144-4.06 9.244-31.443 18.35-62.926 27.604-94.366.805-2.732.846-5.083-.311-7.674-5.088-11.388-8.976-23.286-14.655-34.429-5.638-11.063-13.496-19.01-26.822-19.3-2.585-.057-2.299-1.697-2.436-3.367-.2-2.445 1.259-2.66 3.13-2.651 7.167.034 14.333.009 21.499.009 18.664 0 37.329-.012 55.994.02 1.867.002 4.194-.665 4.369 2.544.113 2.088.018 3.575-2.737 3.42-2.988-.168-5.978-.028-8.945.633-7.33 1.632-10.784 5.955-10.504 13.492.214 5.741 1.95 11.163 4.064 16.408 14.493 35.953 29.08 71.868 43.652 107.79 2.933 7.23 5.924 14.438 8.886 21.651 1.88-.648 1.613-2.228 1.956-3.413a83070.875 83070.875 0 0 0 36-124.67c1.518-5.28 2.78-10.638 2.86-16.185.1-6.9-3.385-11.745-9.98-13.806-3.841-1.2-7.825-1.758-11.816-1.815-2.778-.04-3.298-1.34-3.319-3.707-.023-2.654 1.725-2.368 3.373-2.368 19.498-.007 38.995.026 58.493-.042 2.401-.008 3.352.823 3.119 3.195-.169 1.718.575 3.845-2.49 3.697-12.292-.593-18.122 7.276-21.716 17.337-7.378 20.654-12.41 42.026-18.761 62.999-4.347 14.352-8.355 28.806-12.485 43.224-.313 1.094-.39 2.255-.578 3.385-5.659 19.12-11.335 38.234-16.968 57.361-2.725 9.253-5.35 18.536-8.062 27.793-.578 1.973-.644 4.182-3.833 4.24-3.04.057-4.308-1.137-5.409-3.818-17.75-43.235-35.605-86.427-53.457-129.62-.613-1.482-.822-3.213-2.692-4.615-.558 1.65-1.104 3.106-1.548 4.594-12.728 42.713-25.426 85.436-38.226 128.128-.628 2.096-.24 5.056-4.055 5.334-3.844.28-4.255-2.387-5.256-4.754-6.145-14.534-12.273-29.076-18.406-43.616l-1.026-1.984c-3.558-3.345-4.925-7.559-4.89-12.33zm365.964-121.67c.043 8.295 1.665 16.438 2.402 24.666.06.66.405 1.342.299 1.959-.293 1.705 1.584 4.213-1.627 4.896-2.853.608-4.117-.75-4.787-3.509-1.969-8.103-4.608-16.03-8.624-23.347-13.036-23.749-33.337-35.672-60.314-35.521-16.091.09-29.077 10.78-31.856 25.205-1.953 10.138 1.586 18.69 8.402 26.037 5.14 5.54 11.408 9.684 17.726 13.73 14.602 9.351 30.258 16.772 45.529 24.904 12.902 6.871 26.053 13.37 37.27 23.003 16.032 13.767 24.535 30.88 23.47 52.308-.075 1.495-.06 2.994-.088 4.491-6.014 24.01-21.221 38.698-45.346 43.688-14.717 3.044-29.471 2.157-43.966-2.049-9.1-2.64-18.178-5.36-27.327-7.814-9.087-2.438-13.203.713-13.35 8.666-.042 2.197-1.122 2.686-3.128 2.82-2.796.187-3.342-1.336-3.578-3.57-1.379-13.074-2.801-26.143-4.22-39.213-.986-9.1-2.067-18.19-2.914-27.301-.15-1.621-1.615-4.147 1.787-4.704 3.062-.501 4.01 1.225 4.743 3.743 2.466 8.477 5.511 16.75 9.704 24.543 13.629 25.332 48.795 40.054 76.419 32.04 21.217-6.156 30.243-27.482 19.544-46.773-8.07-14.55-21.595-22.496-36.29-28.844-19.381-11.087-39.695-20.549-58.177-33.2-14.617-10.006-25.55-22.679-30.049-40.392-4.774-18.795.385-34.889 13.15-48.5 10.675-11.384 24.994-15.174 40.187-15.847 14.077-.623 27.344 2.95 40.28 8.121 3.39 1.355 6.785 2.79 10.3 3.722 7.293 1.936 10.91-.4 12.812-7.739.484-1.871-.056-4.255 3.446-4.296 3.57-.042 3.082 2.315 3.312 4.213 1.31 10.84 2.61 21.683 3.652 32.55.24 2.494.619 4.906 1.207 7.314z"/></svg>